<svg width="44" height="44" viewBox="0 0 44 44" fill="none" xmlns="http://www.w3.org/2000/svg">
<path d="M21.9696 17.2892C22.8555 17.2892 23.5789 18.0109 23.5789 18.8967C23.5789 19.7051 24.2359 20.3603 25.0443 20.3603C25.8508 20.3603 26.5078 19.7051 26.5078 18.8967C26.5078 16.9109 25.2141 15.2351 23.4331 14.6224V13.7919C23.4331 12.9854 22.7779 12.3265 21.9696 12.3265C21.1594 12.3265 20.5042 12.9854 20.5042 13.7919V14.6224C18.7232 15.2351 17.4332 16.9109 17.4332 18.8967C17.4332 21.4012 19.467 23.435 21.9696 23.435C22.8555 23.435 23.5789 24.1584 23.5789 25.0443C23.5789 25.932 22.8555 26.6536 21.9696 26.6536C21.0837 26.6536 20.3621 25.932 20.3621 25.0443C20.3621 24.2359 19.7051 23.5789 18.8967 23.5789C18.0865 23.5789 17.4332 24.2359 17.4332 25.0443C17.4332 27.0301 18.7232 28.704 20.5042 29.3168V30.1473C20.5042 30.9575 21.1594 31.6145 21.9696 31.6145C22.7779 31.6145 23.4331 30.9575 23.4331 30.1473V29.3168C25.2141 28.704 26.5078 27.0301 26.5078 25.0443C26.5078 22.5417 24.4722 20.5061 21.9696 20.5061C21.0837 20.5061 20.3621 19.7844 20.3621 18.8967C20.3621 18.0109 21.0837 17.2892 21.9696 17.2892ZM34.2407 30.103C34.9587 30.4813 35.8427 30.2063 36.2192 29.4939C37.4372 27.1925 38.0795 24.5903 38.0795 21.9696C38.0795 13.0887 30.8504 5.86151 21.9696 5.86151C13.0869 5.86151 5.85966 13.0887 5.85966 21.9696C5.85966 30.8523 13.0869 38.0795 21.9696 38.0795C24.5515 38.0795 27.1169 37.4557 29.3887 36.2727C30.1067 35.9017 30.3854 35.014 30.0125 34.2979C29.6397 33.5837 28.7557 33.2995 28.036 33.6741C26.1553 34.656 24.1123 35.1524 21.9696 35.1524C14.7018 35.1524 8.78673 29.2393 8.78673 21.9696C8.78673 14.7036 14.7018 8.78857 21.9696 8.78857C29.2374 8.78857 35.1524 14.7036 35.1524 21.9696C35.1524 24.116 34.6246 26.2439 33.6317 28.1227C33.2515 28.8388 33.5247 29.7246 34.2407 30.103V30.103ZM21.9696 0C17.7266 0 13.6073 1.21438 10.0583 3.50842C9.37731 3.94766 9.18352 4.85383 9.62277 5.533C10.0639 6.21217 10.9663 6.4041 11.6492 5.96855C14.7202 3.98272 18.2932 2.93075 21.9696 2.93075C32.469 2.93075 41.0084 11.472 41.0084 21.9696C41.0084 32.469 32.469 41.0103 21.9696 41.0103C11.4702 41.0103 2.92891 32.469 2.92891 21.9696C2.92891 18.3283 3.96058 14.7867 5.91503 11.7322C6.35058 11.0494 6.15126 10.1432 5.4684 9.70766C4.78739 9.27211 3.88122 9.47143 3.44751 10.1524C1.19223 13.6793 0 17.7691 0 21.9696C0 34.0857 9.85346 43.9392 21.9696 43.9392C34.0839 43.9392 43.9392 34.0857 43.9392 21.9696C43.9392 9.85716 34.0839 0 21.9696 0V0Z" fill="white"/>
</svg>
