<svg width="36" height="26" viewBox="0 0 36 26" fill="none" xmlns="http://www.w3.org/2000/svg">
<path d="M24.0165 17.8442C21.3456 17.8442 19.1708 15.6709 19.1708 12.9985C19.1708 10.3321 21.3456 8.15724 24.0165 8.15724H33.231V17.8442H24.0165ZM23.8585 11.8277C23.2133 11.8277 22.6877 12.3533 22.6877 12.9985C22.6877 13.6467 23.2133 14.1693 23.8585 14.1693C24.5037 14.1693 25.0294 13.6467 25.0294 12.9985C25.0294 12.3533 24.5037 11.8277 23.8585 11.8277ZM30.253 0.112061H5.63176C4.9836 0.112061 4.46093 0.637677 4.46093 1.28289C4.46093 1.92809 4.9836 2.45371 5.63176 2.45371H30.253C31.8949 2.45371 33.231 3.7899 33.231 5.43614V5.81411H24.0165C20.0537 5.81411 16.8277 9.03573 16.8277 12.9985C16.8277 16.9628 20.0537 20.1874 24.0165 20.1874H33.231V20.5653C33.231 22.2086 31.8949 23.5448 30.253 23.5448H5.74544C4.10363 23.5448 2.76744 22.2086 2.76744 20.5653V5.3195C2.76744 4.67134 2.2433 4.1472 1.59662 4.1472C0.948456 4.1472 0.424316 4.67134 0.424316 5.3195V20.5653C0.424316 23.502 2.81174 25.8879 5.74544 25.8879H30.253C33.1868 25.8879 35.5757 23.502 35.5757 20.5653V5.43614C35.5757 2.49801 33.1868 0.112061 30.253 0.112061Z" fill="white"/>
</svg>
