<svg width="160" height="44" viewBox="0 0 160 44" fill="none" xmlns="http://www.w3.org/2000/svg">
<path d="M73.0346 17.76C74.3946 17.76 75.488 18.18 76.3146 19.02C77.1546 19.8467 77.5746 21.0067 77.5746 22.5V29H74.7746V22.88C74.7746 22.0133 74.5546 21.3533 74.1146 20.9C73.6746 20.4333 73.0746 20.2 72.3146 20.2C71.5546 20.2 70.948 20.4333 70.4946 20.9C70.0546 21.3533 69.8346 22.0133 69.8346 22.88V29H67.0346V22.88C67.0346 22.0133 66.8146 21.3533 66.3746 20.9C65.9346 20.4333 65.3346 20.2 64.5746 20.2C63.8013 20.2 63.188 20.4333 62.7346 20.9C62.2946 21.3533 62.0746 22.0133 62.0746 22.88V29H59.2746V17.92H62.0746V19.26C62.4346 18.7933 62.8946 18.4267 63.4546 18.16C64.028 17.8933 64.6546 17.76 65.3346 17.76C66.2013 17.76 66.9746 17.9467 67.6546 18.32C68.3346 18.68 68.8613 19.2 69.2346 19.88C69.5946 19.24 70.1146 18.7267 70.7946 18.34C71.488 17.9533 72.2346 17.76 73.0346 17.76Z" fill="white"/>
<path d="M85.1517 29.18C84.085 29.18 83.125 28.9467 82.2717 28.48C81.4183 28 80.745 27.3267 80.2517 26.46C79.7717 25.5933 79.5317 24.5933 79.5317 23.46C79.5317 22.3267 79.7783 21.3267 80.2717 20.46C80.7783 19.5933 81.465 18.9267 82.3317 18.46C83.1983 17.98 84.165 17.74 85.2317 17.74C86.2983 17.74 87.265 17.98 88.1317 18.46C88.9983 18.9267 89.6783 19.5933 90.1717 20.46C90.6783 21.3267 90.9317 22.3267 90.9317 23.46C90.9317 24.5933 90.6717 25.5933 90.1517 26.46C89.645 27.3267 88.9517 28 88.0717 28.48C87.205 28.9467 86.2317 29.18 85.1517 29.18ZM85.1517 26.74C85.6583 26.74 86.1317 26.62 86.5717 26.38C87.025 26.1267 87.385 25.7533 87.6517 25.26C87.9183 24.7667 88.0517 24.1667 88.0517 23.46C88.0517 22.4067 87.7717 21.6 87.2117 21.04C86.665 20.4667 85.9917 20.18 85.1917 20.18C84.3917 20.18 83.7183 20.4667 83.1717 21.04C82.6383 21.6 82.3717 22.4067 82.3717 23.46C82.3717 24.5133 82.6317 25.3267 83.1517 25.9C83.685 26.46 84.3517 26.74 85.1517 26.74Z" fill="white"/>
<path d="M99.1256 17.76C100.446 17.76 101.512 18.18 102.326 19.02C103.139 19.8467 103.546 21.0067 103.546 22.5V29H100.746V22.88C100.746 22 100.526 21.3267 100.086 20.86C99.6456 20.38 99.0456 20.14 98.2856 20.14C97.5122 20.14 96.8989 20.38 96.4456 20.86C96.0056 21.3267 95.7856 22 95.7856 22.88V29H92.9856V17.92H95.7856V19.3C96.1589 18.82 96.6322 18.4467 97.2056 18.18C97.7922 17.9 98.4322 17.76 99.1256 17.76Z" fill="white"/>
<path d="M116.508 23.22C116.508 23.62 116.482 23.98 116.428 24.3H108.328C108.395 25.1 108.675 25.7267 109.168 26.18C109.662 26.6333 110.268 26.86 110.988 26.86C112.028 26.86 112.768 26.4133 113.208 25.52H116.228C115.908 26.5867 115.295 27.4667 114.388 28.16C113.482 28.84 112.368 29.18 111.048 29.18C109.982 29.18 109.022 28.9467 108.168 28.48C107.328 28 106.668 27.3267 106.188 26.46C105.722 25.5933 105.488 24.5933 105.488 23.46C105.488 22.3133 105.722 21.3067 106.188 20.44C106.655 19.5733 107.308 18.9067 108.148 18.44C108.988 17.9733 109.955 17.74 111.048 17.74C112.102 17.74 113.042 17.9667 113.868 18.42C114.708 18.8733 115.355 19.52 115.808 20.36C116.275 21.1867 116.508 22.14 116.508 23.22ZM113.608 22.42C113.595 21.7 113.335 21.1267 112.828 20.7C112.322 20.26 111.702 20.04 110.968 20.04C110.275 20.04 109.688 20.2533 109.208 20.68C108.742 21.0933 108.455 21.6733 108.348 22.42H113.608Z" fill="white"/>
<path d="M129.152 17.92L122.292 34.24H119.312L121.712 28.72L117.272 17.92H120.412L123.272 25.66L126.172 17.92H129.152Z" fill="white"/>
<path d="M145.887 23.1H142.107V26.98H139.467V23.1H135.687V20.66H139.467V16.78H142.107V20.66H145.887V23.1Z" fill="white"/>
<path d="M159.364 23.1H155.584V26.98H152.944V23.1H149.164V20.66H152.944V16.78H155.584V20.66H159.364V23.1Z" fill="white"/>
<path d="M22.0001 17.3197C22.886 17.3197 23.6094 18.0413 23.6094 18.9271C23.6094 19.7355 24.2665 20.3907 25.0748 20.3907C25.8813 20.3907 26.5383 19.7355 26.5383 18.9271C26.5383 16.9413 25.2446 15.2656 23.4636 14.6528V13.8223C23.4636 13.0158 22.8085 12.3569 22.0001 12.3569C21.1899 12.3569 20.5347 13.0158 20.5347 13.8223V14.6528C18.7538 15.2656 17.4637 16.9413 17.4637 18.9271C17.4637 21.4316 19.4975 23.4654 22.0001 23.4654C22.886 23.4654 23.6094 24.1888 23.6094 25.0747C23.6094 25.9624 22.886 26.684 22.0001 26.684C21.1142 26.684 20.3926 25.9624 20.3926 25.0747C20.3926 24.2664 19.7356 23.6093 18.9272 23.6093C18.117 23.6093 17.4637 24.2664 17.4637 25.0747C17.4637 27.0605 18.7538 28.7345 20.5347 29.3472V30.1777C20.5347 30.9879 21.1899 31.6449 22.0001 31.6449C22.8085 31.6449 23.4636 30.9879 23.4636 30.1777V29.3472C25.2446 28.7345 26.5383 27.0605 26.5383 25.0747C26.5383 22.5721 24.5027 20.5365 22.0001 20.5365C21.1142 20.5365 20.3926 19.8149 20.3926 18.9271C20.3926 18.0413 21.1142 17.3197 22.0001 17.3197ZM34.2713 30.1334C34.9892 30.5117 35.8732 30.2368 36.2497 29.5244C37.4678 27.223 38.11 24.6207 38.11 22C38.11 13.1192 30.881 5.89193 22.0001 5.89193C13.1174 5.89193 5.89018 13.1192 5.89018 22C5.89018 30.8827 13.1174 38.1099 22.0001 38.1099C24.582 38.1099 27.1474 37.4861 29.4193 36.3031C30.1372 35.9322 30.4159 35.0444 30.0431 34.3284C29.6703 33.6141 28.7862 33.3299 28.0665 33.7046C26.1858 34.6864 24.1428 35.1829 22.0001 35.1829C14.7323 35.1829 8.81724 29.2697 8.81724 22C8.81724 14.734 14.7323 8.819 22.0001 8.819C29.2679 8.819 35.183 14.734 35.183 22C35.183 24.1464 34.6551 26.2743 33.6622 28.1531C33.282 28.8692 33.5552 29.7551 34.2713 30.1334ZM22.0001 0.030426C17.7572 0.030426 13.6379 1.24481 10.0888 3.53884C9.40782 3.97809 9.21404 4.88426 9.65328 5.56342C10.0944 6.24259 10.9969 6.43453 11.6797 5.99898C14.7507 4.01315 18.3237 2.96118 22.0001 2.96118C32.4995 2.96118 41.0389 11.5024 41.0389 22C41.0389 32.4994 32.4995 41.0407 22.0001 41.0407C11.5007 41.0407 2.95943 32.4994 2.95943 22C2.95943 18.3587 3.9911 14.8171 5.94555 11.7627C6.3811 11.0798 6.18178 10.1736 5.49892 9.73809C4.81791 9.30254 3.91174 9.50186 3.47803 10.1829C1.22275 13.7097 0.0305176 17.7995 0.0305176 22C0.0305176 34.1161 9.88398 43.9696 22.0001 43.9696C34.1144 43.9696 43.9697 34.1161 43.9697 22C43.9697 9.88758 34.1144 0.030426 22.0001 0.030426Z" fill="white"/>
</svg>
